<svg width="220" height="46" viewBox="0 0 220 46" fill="none" xmlns="http://www.w3.org/2000/svg">
<path d="M19.9226 2.87364L18.6732 8.30857L21.8592 12.619L26.0447 9.05821L25.545 5.80975L26.8568 4.31046H29.2307L30.9174 5.0601L29.8554 3.62328L27.7314 2.87364L26.2946 0.937056L24.0457 0L21.8592 0.499763L19.9226 2.87364Z" fill="#2D7DDB"/>
<path d="M25.4825 4.87254L23.9207 5.997L23.4834 7.059L24.4205 8.7457L25.8573 9.12052L25.7948 7.49629L25.5449 5.80959L26.8568 4.3103L25.4825 4.87254Z" fill="#1A34C0"/>
<path d="M20.7972 6.37191L21.9841 7.24649L21.8592 8.9332V11.2446L19.6102 7.8712L18.3608 8.24602L19.048 6.62179L19.9226 2.93604L20.7972 6.37191Z" fill="#56CCF2"/>
<path d="M20.6766 45.216L21.9023 42.4444V21.4272L16.8875 41.541L17.0821 44.63L20.6766 45.216Z" fill="#2D7DDB"/>
<path d="M15.0611 43.762L16.9625 41.4021L22.4021 21.1011L12.3523 39.2316L11.7408 42.2656L15.0611 43.762Z" fill="#56CCF2"/>
<path d="M9.84971 41.1216L12.2971 39.3342L22.8057 21.1328L8.40581 36.0445L7.02985 38.8168L9.84971 41.1216Z" fill="#2D7DDB"/>
<path d="M5.71364 37.0548L8.54026 35.9617L23.4016 21.1003L5.63301 31.7769L3.58638 34.0987L5.71364 37.0548Z" fill="#56CCF2"/>
<path d="M2.52919 32.2117L5.54241 31.8875L23.7438 21.3789L3.81732 27.0928L1.2395 28.8058L2.52919 32.2117Z" fill="#2D7DDB"/>
<path d="M0.980665 26.6214L3.97514 27.0881L24.2761 21.6484L3.54977 22.0103L0.616435 22.9978L0.980665 26.6214Z" fill="#56CCF2"/>
<path d="M15.7178 21.8022H20.1532L21.9023 29.4236L17.8418 25.8628L15.7178 21.8022Z" fill="#56CCF2"/>
<path d="M16.3619 20.3654L21.8593 29.4236V9.93285L20.2975 6.99674L17.7362 6.30957L15.4248 6.99674L13.863 10.4951L16.3619 20.3654Z" fill="#2D7DDB"/>
<path fill-rule="evenodd" clip-rule="evenodd" d="M21.8591 29.4233L16.3619 20.3654L13.863 10.4951L15.4248 6.99674L17.7362 6.30957L20.2975 6.99674L21.8593 9.93285V29.4236L21.8592 29.4236V9.93285L19.173 8.93332L16.7366 11.3697L17.2364 19.7407L21.8591 29.4233Z" fill="#56CCF2"/>
<path d="M27.3567 20.3654L21.8593 29.4236V9.93285L23.421 6.99674L25.9823 6.30957L28.2937 6.99674L29.8555 10.4951L27.3567 20.3654Z" fill="#1A34C0"/>
<path fill-rule="evenodd" clip-rule="evenodd" d="M21.8593 29.4236L27.3567 20.3654L29.8555 10.4951L28.2937 6.99674L25.9823 6.30957L23.421 6.99674L21.8593 9.93284L24.5455 8.93332L26.9818 11.3697L26.4821 19.7407L21.8593 29.4236V29.4236Z" fill="#2D7DDB"/>
<path d="M25.17 2.06171L26.2945 2.99876L25.295 3.561L24.6078 3.81088L23.9831 3.561L23.6083 2.93629L23.7332 2.43653L24.233 1.93677L25.17 2.06171Z" fill="#56CCF2"/>
<path d="M39.8657 37.0689V7.96465H58.2571V12.954H45.3831V19.9806H57.254V24.9699H45.3831V37.0689H39.8657Z" fill="white"/>
<path d="M62.1937 37.0689V7.96465H67.7111V37.0689H62.1937Z" fill="white"/>
<path d="M72.3789 37.0689V32.2459H76.2243V12.7876H72.3789V7.96465H84.4169C88.346 7.96465 91.3276 8.96252 93.3618 10.9582C95.4239 12.9262 96.4549 15.8644 96.4549 19.7727V25.2609C96.4549 29.1692 95.4239 32.1212 93.3618 34.1169C91.3276 36.0849 88.346 37.0689 84.4169 37.0689H72.3789ZM81.7418 32.0796H84.5005C86.7297 32.0796 88.3599 31.4975 89.3909 30.3334C90.422 29.1692 90.9375 27.5338 90.9375 25.4272V19.6064C90.9375 17.4721 90.422 15.8367 89.3909 14.7002C88.3599 13.536 86.7297 12.954 84.5005 12.954H81.7418V32.0796Z" fill="white"/>
<path d="M101.053 37.0689V7.96465H119.863V12.954H106.571V19.8974H118.692V24.8867H106.571V32.0796H120.114V37.0689H101.053Z" fill="white"/>
<path d="M134.355 37.651C132.098 37.651 130.105 37.2491 128.378 36.4453C126.65 35.6414 125.298 34.4911 124.323 32.9943C123.348 31.4975 122.86 29.6959 122.86 27.5893V26.4251H128.294V27.5893C128.294 29.3355 128.837 30.6521 129.924 31.5391C131.011 32.3984 132.488 32.828 134.355 32.828C136.25 32.828 137.657 32.4538 138.577 31.7054C139.524 30.957 139.998 30.0008 139.998 28.8366C139.998 28.0328 139.761 27.3814 139.287 26.8824C138.841 26.3835 138.172 25.9816 137.281 25.6767C136.417 25.3441 135.358 25.0392 134.104 24.762L133.143 24.5541C131.136 24.1106 129.409 23.5562 127.96 22.891C126.538 22.198 125.438 21.2972 124.658 20.1885C123.905 19.0797 123.529 17.6384 123.529 15.8644C123.529 14.0904 123.947 12.5798 124.783 11.3324C125.647 10.0574 126.845 9.08725 128.378 8.42201C129.938 7.72905 131.763 7.38257 133.853 7.38257C135.943 7.38257 137.796 7.74291 139.412 8.46359C141.057 9.15654 142.338 10.2098 143.258 11.6235C144.205 13.0094 144.679 14.7557 144.679 16.8622V18.1096H139.245V16.8622C139.245 15.7535 139.022 14.8665 138.577 14.2013C138.159 13.5083 137.545 13.0094 136.737 12.7045C135.929 12.3719 134.968 12.2056 133.853 12.2056C132.181 12.2056 130.941 12.5243 130.133 13.1618C129.353 13.7717 128.963 14.6171 128.963 15.6981C128.963 16.4188 129.144 17.0286 129.506 17.5275C129.896 18.0264 130.468 18.4422 131.22 18.7748C131.972 19.1074 132.934 19.3985 134.104 19.6479L135.065 19.8558C137.155 20.2993 138.967 20.8676 140.499 21.5605C142.06 22.2535 143.272 23.1682 144.136 24.3046C145 25.4411 145.431 26.8963 145.431 28.6703C145.431 30.4442 144.972 32.0103 144.052 33.3685C143.16 34.699 141.879 35.7523 140.207 36.5284C138.563 37.2768 136.612 37.651 134.355 37.651Z" fill="white"/>
<path d="M149.546 37.0689V7.96465H155.064V37.0689H149.546Z" fill="white"/>
<path d="M171.853 37.651C169.457 37.651 167.395 37.2214 165.667 36.3621C163.967 35.4751 162.657 34.2278 161.738 32.6201C160.846 30.9848 160.4 29.0583 160.4 26.8409V7.96465H165.918V27.0072C165.918 28.7811 166.419 30.1809 167.422 31.2065C168.454 32.2321 169.93 32.7449 171.853 32.7449C173.776 32.7449 175.239 32.2321 176.242 31.2065C177.273 30.1809 177.789 28.7811 177.789 27.0072V7.96465H183.306V26.8409C183.306 29.0583 182.846 30.9848 181.927 32.6201C181.035 34.2278 179.725 35.4751 177.998 36.3621C176.298 37.2214 174.25 37.651 171.853 37.651Z" fill="white"/>
<path d="M188.651 37.0689V7.96465H198.892L203.949 33.327H204.702L209.759 7.96465H220V37.0689H214.65V11.9977H213.897L208.882 37.0689H199.769L194.754 11.9977H194.001V37.0689H188.651Z" fill="white"/>
</svg>
