<svg width="158" height="139" viewBox="0 0 158 139" fill="none" xmlns="http://www.w3.org/2000/svg">
<path d="M69.5 2C32.2208 2 2 32.2208 2 69.5H69.5V2Z" fill="#56CCF2" fill-opacity="0.5" class="scan-1"></path>
<path d="M137 69.5C137 32.2208 106.779 2 69.5 2L69.5 69.5L137 69.5Z" fill="#56CCF2" fill-opacity="0.7" class="scan-2"></path>
<path d="M2 69.5C2 106.779 32.2208 137 69.5 137L69.5 69.5L2 69.5Z" fill="#56CCF2" fill-opacity="0.2" class="scan-3"></path>
<path d="M137 69.5C137 32.2208 106.779 2 69.5 2C32.2208 2 2 32.2208 2 69.5C2 106.779 32.2208 137 69.5 137" stroke="#56CCF2" stroke-width="4" class="scan-4"></path>
<circle cx="69.4999" cy="69.4999" r="3.11538" fill="#56CCF2" class="scan-5"></circle>
<circle cx="154.654" cy="69.4999" r="3.11538" fill="#56CCF2" class="scan-6"></circle>
<path d="M69.5 69.5H154.654" stroke="#56CCF2" stroke-width="2" class="scan-7"></path>
<path d="M120.962 70.0193C120.962 98.7275 97.6889 122 68.9808 122C40.2726 122 17 98.7275 17 70.0193C17 41.3112 40.2726 18.0386 68.9808 18.0386C97.6889 18.0386 120.962 41.3112 120.962 70.0193Z" stroke="#56CCF2" stroke-width="3" class="scan-8"></path>
<circle cx="68.9808" cy="70.0192" r="33.7885" stroke="#56CCF2" stroke-width="2" class="scan-9"></circle>
<path d="M84.5769 69.5C84.5769 77.8268 77.8268 84.5769 69.5 84.5769C61.1733 84.5769 54.4231 77.8268 54.4231 69.5C54.4231 61.1733 61.1733 54.4231 69.5 54.4231C77.8268 54.4231 84.5769 61.1733 84.5769 69.5Z" stroke="#56CCF2" class="scan-10"></path>
<circle cx="99.6153" cy="96.5001" r="6.23077" fill="#EB5757" class="scan-11"></circle>
<circle cx="85.077" cy="43.5384" r="6.23077" fill="#EB5757" class="scan-12"></circle>
<circle cx="24.8462" cy="69.5001" r="6.23077" fill="#EB5757" class="scan-13"></circle>
</svg>
