<svg width="128" height="135" viewBox="0 0 128 135" fill="none" xmlns="http://www.w3.org/2000/svg">
<path d="M2 4C2 2.89543 2.89543 2 4 2H68.6476C69.1562 2 69.6458 2.19383 70.0166 2.54203L71.3857 1.08407L70.0166 2.54204L99.5945 30.3164C99.9971 30.6944 100.225 31.2221 100.225 31.7744V131C100.225 132.105 99.33 133 98.2254 133H4.00001C2.89543 133 2 132.105 2 131V4Z" stroke="#56CCF2" stroke-width="4" class="scar-1"></path>
<circle cx="27.7023" cy="40.9681" r="7.97399" stroke="#56CCF2" stroke-width="2" class="scar-2"></circle>
<path d="M36.6763 40.5781H110.029" stroke="#56CCF2" stroke-width="2" class="scar-3"></path>
<rect x="110.029" y="31.9941" width="17.948" height="17.948" rx="4" fill="#27AE60" class="scar-4"></rect>
<circle cx="27.7023" cy="64.3785" r="7.97399" stroke="#56CCF2" stroke-width="2" class="scar-5"></circle>
<path d="M36.6763 63.9885H110.029" stroke="#56CCF2" stroke-width="2" class="scar-6"></path>
<rect x="110.029" y="55.4045" width="17.948" height="17.948" rx="4" fill="#F2E14C" class="scar-7"></rect>
<circle cx="27.7023" cy="87.7889" r="7.97399" stroke="#56CCF2" stroke-width="2" class="scar-8"></circle>
<path d="M36.6763 87.3989H110.029" stroke="#56CCF2" stroke-width="2" class="scar-9"></path>
<rect x="110.029" y="78.8149" width="17.948" height="17.948" rx="4" fill="#27AE60" class="scar-10"></rect>
<circle cx="27.7023" cy="111.199" r="7.97399" stroke="#56CCF2" stroke-width="2" class="scar-11"></circle>
<path d="M36.6763 110.809H110.029" stroke="#56CCF2" stroke-width="2" class="scar-12"></path>
<rect x="110.029" y="102.225" width="17.948" height="17.948" rx="4" fill="#F2B04C" class="scar-13"></rect>
</svg>
