<svg width="32" height="32" viewBox="0 0 32 32" fill="none" xmlns="http://www.w3.org/2000/svg">
<mask id="mask0_2274_9568" style="mask-type:alpha" maskUnits="userSpaceOnUse" x="0" y="0" width="32" height="32">
<circle cx="16" cy="16" r="16" fill="#D9D9D9"/>
</mask>
<g mask="url(#mask0_2274_9568)">
<path d="M5.75145 9.16635L3.08276 19.1221L9.88792 27.018L18.828 20.4953L17.7606 14.5447L20.5627 11.7983H25.6332L29.2359 13.1715L26.9675 10.5396L22.4308 9.16635L19.3618 5.61891L14.5581 3.9024L9.88792 4.81787L5.75145 9.16635Z" fill="#2D7DDB"/>
<path d="M17.6271 12.8282L14.2912 14.888L13.3572 16.8334L15.3587 19.9231L18.4277 20.6097L18.2943 17.6345L17.7605 14.5447L20.5626 11.7983L17.6271 12.8282Z" fill="#1A34C0"/>
<path d="M7.61972 15.5746L10.155 17.1767L9.88811 20.2664V24.5004L5.08446 18.321L2.41577 19.0076L3.88355 16.0323L5.75164 9.28076L7.61972 15.5746Z" fill="#56CCF2"/>
<path d="M-1.85427 41.2077L9.88797 57.8006V22.0973L6.5521 16.7189L1.08129 15.4601L-3.85579 16.7189L-7.19165 23.1272L-1.85427 41.2077Z" fill="#2D7DDB"/>
<path fill-rule="evenodd" clip-rule="evenodd" d="M9.88797 57.8006L-1.85427 41.2077L-7.19165 23.1272L-3.85579 16.7189L1.08129 15.4601L6.5521 16.7189L9.88797 22.0973V22.0973L4.15038 20.2664L-1.05356 24.7293L0.0139151 40.0634L9.88797 57.8006Z" fill="#56CCF2"/>
<path d="M21.6304 41.2078L9.88816 57.8006V22.0974L13.224 16.719L18.6948 15.4602L23.6319 16.719L26.9678 23.1273L21.6304 41.2078Z" fill="#1A34C0"/>
<path fill-rule="evenodd" clip-rule="evenodd" d="M9.88816 57.8006L21.6304 41.2078L26.9678 23.1273L23.6319 16.719L18.6948 15.4602L13.224 16.719L9.88816 22.0974L15.6258 20.2664L20.8297 24.7293L19.7623 40.0634L9.88816 57.8006Z" fill="#2D7DDB"/>
<path d="M16.9601 7.6787L19.362 9.3952L17.227 10.4251L15.7592 10.8828L14.4249 10.4251L13.6243 9.28077L13.8911 8.3653L14.9586 7.44983L16.9601 7.6787Z" fill="#56CCF2"/>
</g>
</svg>
