<svg width="32" height="32" viewBox="0 0 32 32" fill="none" xmlns="http://www.w3.org/2000/svg">
<path d="M29.6324 0H2.36116C2.35263 0 2.34302 0 2.33236 0C1.05308 0 0.0149373 1.02854 0 2.30355V29.6943C0.0149373 30.9704 1.05308 32 2.33236 32C2.34302 32 2.35263 32 2.3633 32H29.6292C29.6378 32 29.6484 32 29.6591 32C30.9395 32 31.9797 30.9725 32 29.6965V29.6943V2.30568C31.9797 1.02854 30.9395 0 29.658 0C29.6474 0 29.6378 0 29.6271 0H29.6324ZM9.49053 27.2691H4.73833V12H9.49053V27.2691ZM7.1155 9.91091C5.59509 9.91091 4.36383 8.67858 4.36383 7.15924C4.36383 5.6399 5.59616 4.40758 7.1155 4.40758C8.63484 4.40758 9.86716 5.63884 9.86716 7.15818C9.86716 7.15924 9.86716 7.16031 9.86716 7.16244C9.86716 8.68072 8.6359 9.91198 7.11763 9.91198C7.11656 9.91198 7.1155 9.91198 7.11443 9.91198L7.1155 9.91091ZM27.2617 27.2691H22.5233V19.8442C22.5233 18.0731 22.4871 15.7951 20.0544 15.7951C17.5834 15.7951 17.2067 17.7221 17.2067 19.7141V27.2702H12.4684V12.0011H17.02V14.0827H17.0819C17.9653 12.5943 19.5636 11.6127 21.3913 11.6127C21.4564 11.6127 21.5204 11.6138 21.5844 11.6159H21.5748C26.3761 11.6159 27.2638 14.7762 27.2638 18.8893V27.2702L27.2617 27.2691Z" fill="#56CCF2"/>
</svg>
