<svg width="32" height="32" viewBox="0 0 32 32" fill="none" xmlns="http://www.w3.org/2000/svg">
<path fill-rule="evenodd" clip-rule="evenodd" d="M29.6272 0H29.6325H29.6581C30.9395 0 31.9798 1.02854 32.0001 2.30569V29.6944V29.6965C31.9798 30.9726 30.9395 32.0001 29.6592 32.0001H29.6293H2.3633H2.33236C1.05308 32.0001 0.0149373 30.9705 0 29.6944V2.30355C0.0149373 1.02854 1.05308 0 2.33236 0H2.36117H29.6272ZM26.9601 4.51338H23.1132L16.7741 11.7596L11.2932 4.51338H3.3551L12.8399 16.916L3.85051 27.1904H7.69978L14.6378 19.2627L20.7013 27.1904H28.4428L18.5557 14.1191L26.9601 4.51338ZM23.8946 24.8878H21.763L7.84747 6.69502H10.1349L23.8946 24.8878Z" fill="#56CCF2"/>
</svg>
